<svg xmlns="http://www.w3.org/2000/svg" viewBox="0 0 48 48">
  <path id="Combined-Shape" fill="#fffc" fill-rule="nonzero" d="M24,44 C12.954305,44 4,35.045695 4,24 C4,12.954305 12.954305,4 24,4 C35.045695,4 44,12.954305 44,24 C44,35.045695 35.045695,44 24,44 Z M29.0526667,21.4315556 C30.3507472,20.5079213 31.286849,19.5967823 31.861,18.6981111 C32.435151,17.79944 32.7222222,16.7759687 32.7222222,15.6276667 C32.7222222,14.6041801 32.4975578,13.655597 32.0482222,12.7818889 C31.5988866,11.9081808 30.9498561,11.1717808 30.1011111,10.5726667 C29.2773292,10.0734049 28.3287461,9.68648285 27.2553333,9.41188889 C26.1819206,9.13729492 25.0461171,9 23.8478889,9 C22.4749191,9 21.2205427,9.17473899 20.0847222,9.52422222 C18.9489017,9.87370545 17.9815966,10.3979224 17.1827778,11.0968889 C15.5102509,12.544748 14.674,14.4044701 14.674,16.6761111 C14.674,18.1738964 15.0546814,19.5842897 15.8160556,20.9073333 C16.5774297,22.230377 17.6695484,23.3661804 19.0924444,24.3147778 C17.4448807,25.1884858 16.1842636,26.2369198 15.3105556,27.4601111 C14.4368475,28.6833024 14,30.0063262 14,31.4292222 C14,32.4527088 14.2496271,33.4012919 14.7488889,34.275 C15.2481506,35.1487081 15.9408659,35.9038302 16.8270556,36.5403889 C17.7132452,37.1769476 18.7616791,37.6762019 19.9723889,38.0381667 C21.1830986,38.4001314 22.4874004,38.5811111 23.8853333,38.5811111 C25.3831186,38.5811111 26.7685492,38.368928 28.0416667,37.9445556 C29.3147841,37.5201831 30.4069029,36.9273186 31.3180556,36.1659444 C32.2292083,35.4045703 32.9406456,34.4934312 33.4523889,33.4325 C33.9641322,32.3715688 34.22,31.2170433 34.22,29.9688889 C34.22,28.296362 33.7706712,26.7174704 32.872,25.2321667 C31.9733288,23.7468629 30.7002305,22.4800052 29.0526667,21.4315556 Z M21.8633333,25.1011111 L24.9337778,26.4491111 C26.5813416,27.1730407 27.7920332,27.9344034 28.5658889,28.7332222 C29.3397446,29.532041 29.7266667,30.4556614 29.7266667,31.5041111 C29.7266667,32.2280407 29.5831311,32.8957932 29.2960556,33.5073889 C29.00898,34.1189845 28.6095766,34.6432015 28.0978333,35.0800556 C27.58609,35.5169096 26.9807442,35.8601469 26.2817778,36.1097778 C25.5828113,36.3594087 24.8089672,36.4842222 23.9602222,36.4842222 C22.3376215,36.4842222 21.0520418,35.984968 20.1034444,34.9864444 C19.1548471,33.9879209 18.6805556,32.6399344 18.6805556,30.9424444 C18.6805556,29.7442162 18.9489047,28.6458568 19.4856111,27.6473333 C20.0223175,26.6488098 20.8148836,25.8000776 21.8633333,25.1011111 Z M26.2817778,20.6452222 L23.7355556,19.6342222 C20.5652434,18.4110309 18.9801111,16.9132681 18.9801111,15.1408889 C18.9801111,14.5667379 19.098684,14.0300395 19.3358333,13.5307778 C19.5729827,13.031516 19.9037386,12.6009092 20.3281111,12.2389444 C20.7524836,11.8769797 21.2454972,11.5899085 21.8071667,11.3777222 C22.3688361,11.165536 22.9866633,11.0594444 23.6606667,11.0594444 C24.3596331,11.0594444 25.002423,11.1904987 25.5890556,11.4526111 C26.1756881,11.7147235 26.6874237,12.0766829 27.1242778,12.5385 C27.5611318,13.0003171 27.9043691,13.5432561 28.154,14.1673333 C28.4036309,14.7914105 28.5284444,15.4654038 28.5284444,16.1893333 C28.5284444,17.0131152 28.3349834,17.8119221 27.9480556,18.5857778 C27.5611277,19.3596335 27.0057073,20.0461081 26.2817778,20.6452222 Z"></path>
</svg>