<svg xmlns="http://www.w3.org/2000/svg" viewBox="0 0 48 48">
  <path id="github" fill="#fffc" d="M17.3790323,35.421875 C17.3790323,35.578125 17.1935484,35.703125 16.9596774,35.703125 C16.6935484,35.7265625 16.5080645,35.6015625 16.5080645,35.421875 C16.5080645,35.265625 16.6935484,35.140625 16.9274194,35.140625 C17.1693548,35.1171875 17.3790323,35.2421875 17.3790323,35.421875 Z M14.8709677,35.0703125 C14.8145161,35.2265625 14.9758065,35.40625 15.2177419,35.453125 C15.4274194,35.53125 15.6693548,35.453125 15.7177419,35.296875 C15.766129,35.140625 15.6129032,34.9609375 15.3709677,34.890625 C15.1612903,34.8359375 14.9274194,34.9140625 14.8709677,35.0703125 Z M18.4354839,34.9375 C18.2016129,34.9921875 18.0403226,35.140625 18.0645161,35.3203125 C18.0887097,35.4765625 18.2983871,35.578125 18.5403226,35.5234375 C18.7741935,35.46875 18.9354839,35.3203125 18.9112903,35.1640625 C18.8870968,35.015625 18.6693548,34.9140625 18.4354839,34.9375 Z M23.7419355,5 C12.5564516,5 4,13.2265625 4,24.0625 C4,32.7265625 9.62903226,40.140625 17.6693548,42.75 C18.7016129,42.9296875 19.0645161,42.3125 19.0645161,41.8046875 C19.0645161,41.3203125 19.0403226,38.6484375 19.0403226,37.0078125 C19.0403226,37.0078125 13.3951613,38.1796875 12.2096774,34.6796875 C12.2096774,34.6796875 11.2903226,32.40625 9.96774194,31.8203125 C9.96774194,31.8203125 8.12096774,30.59375 10.0967742,30.6171875 C10.0967742,30.6171875 12.1048387,30.7734375 13.2096774,32.6328125 C14.9758065,35.6484375 17.9354839,34.78125 19.0887097,34.265625 C19.2741935,33.015625 19.7983871,32.1484375 20.3790323,31.6328125 C15.8709677,31.1484375 11.3225806,30.515625 11.3225806,23 C11.3225806,20.8515625 11.9354839,19.7734375 13.2258065,18.3984375 C13.016129,17.890625 12.3306452,15.796875 13.4354839,13.09375 C15.1209677,12.5859375 19,15.203125 19,15.203125 C20.6129032,14.765625 22.3467742,14.5390625 24.0645161,14.5390625 C25.7822581,14.5390625 27.516129,14.765625 29.1290323,15.203125 C29.1290323,15.203125 33.0080645,12.578125 34.6935484,13.09375 C35.7983871,15.8046875 35.1129032,17.890625 34.9032258,18.3984375 C36.1935484,19.78125 36.983871,20.859375 36.983871,23 C36.983871,30.5390625 32.233871,31.140625 27.7258065,31.6328125 C28.4677419,32.25 29.0967742,33.421875 29.0967742,35.2578125 C29.0967742,37.890625 29.0725806,41.1484375 29.0725806,41.7890625 C29.0725806,42.296875 29.4435484,42.9140625 30.4677419,42.734375 C38.5322581,40.140625 44,32.7265625 44,24.0625 C44,13.2265625 34.9274194,5 23.7419355,5 Z M11.8387097,31.9453125 C11.733871,32.0234375 11.7580645,32.203125 11.8951613,32.3515625 C12.0241935,32.4765625 12.2096774,32.53125 12.3145161,32.4296875 C12.4193548,32.3515625 12.3951613,32.171875 12.2580645,32.0234375 C12.1290323,31.8984375 11.9435484,31.84375 11.8387097,31.9453125 Z M10.9677419,31.3125 C10.9112903,31.4140625 10.9919355,31.5390625 11.1532258,31.6171875 C11.2822581,31.6953125 11.4435484,31.671875 11.5,31.5625 C11.5564516,31.4609375 11.4758065,31.3359375 11.3145161,31.2578125 C11.1532258,31.2109375 11.0241935,31.234375 10.9677419,31.3125 Z M13.5806452,34.09375 C13.4516129,34.1953125 13.5,34.4296875 13.6854839,34.578125 C13.8709677,34.7578125 14.1048387,34.78125 14.2096774,34.65625 C14.3145161,34.5546875 14.266129,34.3203125 14.1048387,34.171875 C13.9274194,33.9921875 13.6854839,33.96875 13.5806452,34.09375 Z M12.6612903,32.9453125 C12.5322581,33.0234375 12.5322581,33.2265625 12.6612903,33.40625 C12.7903226,33.5859375 13.0080645,33.6640625 13.1129032,33.5859375 C13.2419355,33.484375 13.2419355,33.28125 13.1129032,33.1015625 C13,32.921875 12.7903226,32.84375 12.6612903,32.9453125 Z"></path>
</svg>